#N canvas 532 23 748 615 10;
#X obj 332 37 receive #touch2;
#X msg 59 221 1;
#X msg 113 238 0;
#X obj 59 244 t f b;
#X msg 59 198 play;
#X msg 113 200 stop;
#X text 429 86 modify the name of the sample as you desire;
#X obj 126 460 readsf~ 2;
#X obj 126 486 dac~;
#X obj 642 233 s #touch2;
#X msg 143 310 open Water2.wav;
#X msg 482 334 open \$1;
#X msg 541 197 Water2.wav;
#X msg 265 264 0;
#X obj 481 304 symbol;
#X obj 325 62 route m s;
#X msg 207 261 1;
#X obj 285 105 sel 0 1;
#X connect 0 0 15 0;
#X connect 1 0 3 0;
#X connect 2 0 7 0;
#X connect 3 0 7 0;
#X connect 3 1 10 0;
#X connect 4 0 1 0;
#X connect 5 0 2 0;
#X connect 7 0 8 0;
#X connect 7 1 8 1;
#X connect 10 0 7 0;
#X connect 11 0 7 0;
#X connect 12 0 14 0;
#X connect 13 0 7 0;
#X connect 14 0 11 0;
#X connect 15 0 17 0;
#X connect 15 1 14 0;
#X connect 16 0 7 0;
#X connect 17 0 13 0;
#X connect 17 1 16 0;
